<svg xmlns="http://www.w3.org/2000/svg" width="26" height="26" viewBox="0 0 26 26">
  <path id="account" d="M66.241-880.155a12.883,12.883,0,0,1,3.5-1.837,12.3,12.3,0,0,1,4.045-.663,12.067,12.067,0,0,1,4.067.689,13.1,13.1,0,0,1,3.47,1.828,10.2,10.2,0,0,0,1.6-2.805,9.24,9.24,0,0,0,.57-3.276,9.357,9.357,0,0,0-2.847-6.866,9.357,9.357,0,0,0-6.866-2.847,9.357,9.357,0,0,0-6.866,2.847,9.357,9.357,0,0,0-2.847,6.866,9.315,9.315,0,0,0,.561,3.258A9.8,9.8,0,0,0,66.241-880.155Zm7.541-4.665a4.349,4.349,0,0,1-3.191-1.282,4.305,4.305,0,0,1-1.291-3.182,4.334,4.334,0,0,1,1.291-3.191,4.334,4.334,0,0,1,3.191-1.291,4.334,4.334,0,0,1,3.191,1.291,4.334,4.334,0,0,1,1.291,3.191,4.305,4.305,0,0,1-1.291,3.182A4.349,4.349,0,0,1,73.782-884.82Zm0,11.6a12.66,12.66,0,0,1-5.064-1.021,13.125,13.125,0,0,1-4.131-2.783,13.119,13.119,0,0,1-2.783-4.132,12.672,12.672,0,0,1-1.021-5.065,12.661,12.661,0,0,1,1.021-5.064,13.12,13.12,0,0,1,2.783-4.131,13.115,13.115,0,0,1,4.133-2.783,12.671,12.671,0,0,1,5.065-1.021,12.66,12.66,0,0,1,5.064,1.021,13.119,13.119,0,0,1,4.131,2.783,13.114,13.114,0,0,1,2.783,4.133,12.67,12.67,0,0,1,1.021,5.065,12.659,12.659,0,0,1-1.021,5.064,13.12,13.12,0,0,1-2.783,4.131,13.121,13.121,0,0,1-4.133,2.783A12.671,12.671,0,0,1,73.781-873.218Zm0-3.287a9.407,9.407,0,0,0,2.908-.437,9.886,9.886,0,0,0,2.562-1.266,10.138,10.138,0,0,0-2.553-1.275,9.347,9.347,0,0,0-2.917-.428,9.265,9.265,0,0,0-2.908.428,10.184,10.184,0,0,0-2.544,1.275,9.926,9.926,0,0,0,2.553,1.266A9.324,9.324,0,0,0,73.782-876.505Zm0-11.059a1.667,1.667,0,0,0,1.228-.492,1.666,1.666,0,0,0,.492-1.228,1.7,1.7,0,0,0-.492-1.237,1.652,1.652,0,0,0-1.228-.5,1.652,1.652,0,0,0-1.228.5,1.7,1.7,0,0,0-.492,1.237,1.666,1.666,0,0,0,.492,1.228A1.667,1.667,0,0,0,73.782-887.564ZM73.782-889.284ZM73.8-878.208Z" transform="translate(-60.782 899.218)"/>
</svg>
