<svg id="calendar" xmlns="http://www.w3.org/2000/svg" width="20.895" height="23.1" viewBox="0 0 20.895 23.1">
  <path id="calendar-2" data-name="calendar" d="M103.7-876.119a2.818,2.818,0,0,1-2.071-.85,2.818,2.818,0,0,1-.85-2.07v-15.055a2.818,2.818,0,0,1,.85-2.071,2.818,2.818,0,0,1,2.071-.85h.915v-2.2h2.562v2.2h8.1v-2.2h2.562v2.2h.915a2.818,2.818,0,0,1,2.071.85,2.818,2.818,0,0,1,.85,2.071v15.055a2.818,2.818,0,0,1-.85,2.07,2.818,2.818,0,0,1-2.071.85Zm0-2.92h15.055v-10.833H103.7Zm0-13.037h15.055v-2.017H103.7Zm0,0v0Zm7.527,6.737a1.187,1.187,0,0,1-.874-.353,1.187,1.187,0,0,1-.353-.874,1.187,1.187,0,0,1,.353-.874,1.187,1.187,0,0,1,.874-.353,1.187,1.187,0,0,1,.874.353,1.187,1.187,0,0,1,.353.874,1.187,1.187,0,0,1-.353.874A1.187,1.187,0,0,1,111.23-885.34Zm-4.408,0a1.187,1.187,0,0,1-.874-.353,1.187,1.187,0,0,1-.353-.874,1.187,1.187,0,0,1,.353-.874,1.187,1.187,0,0,1,.874-.353,1.187,1.187,0,0,1,.874.353,1.187,1.187,0,0,1,.353.874,1.187,1.187,0,0,1-.353.874A1.187,1.187,0,0,1,106.822-885.34Zm8.816,0a1.2,1.2,0,0,1-.863-.353,1.169,1.169,0,0,1-.364-.874,1.169,1.169,0,0,1,.364-.874,1.206,1.206,0,0,1,.871-.353,1.18,1.18,0,0,1,.863.353,1.182,1.182,0,0,1,.356.874,1.187,1.187,0,0,1-.353.874A1.187,1.187,0,0,1,115.638-885.34Zm-4.408,4.408a1.169,1.169,0,0,1-.874-.364,1.207,1.207,0,0,1-.353-.871,1.18,1.18,0,0,1,.353-.863,1.182,1.182,0,0,1,.874-.356,1.187,1.187,0,0,1,.874.353,1.187,1.187,0,0,1,.353.874,1.2,1.2,0,0,1-.353.863A1.169,1.169,0,0,1,111.23-880.932Zm-4.408,0a1.169,1.169,0,0,1-.874-.364,1.207,1.207,0,0,1-.353-.871,1.18,1.18,0,0,1,.353-.863,1.182,1.182,0,0,1,.874-.356,1.187,1.187,0,0,1,.874.353,1.187,1.187,0,0,1,.353.874,1.2,1.2,0,0,1-.353.863A1.169,1.169,0,0,1,106.822-880.932Zm8.816,0a1.179,1.179,0,0,1-.863-.364,1.188,1.188,0,0,1-.364-.871,1.163,1.163,0,0,1,.364-.863,1.2,1.2,0,0,1,.871-.356,1.18,1.18,0,0,1,.863.353,1.182,1.182,0,0,1,.356.874,1.2,1.2,0,0,1-.353.863A1.169,1.169,0,0,1,115.638-880.932Z" transform="translate(-100.782 899.218)"/>
</svg>
