<svg xmlns="http://www.w3.org/2000/svg" width="18" height="15.665" viewBox="0 0 18 15.665">
  <path id="edit_note_FILL1_wght700_GRAD0_opsz20" d="M158-790.324v-2.87h8.489v2.87Zm0-4.4v-2.87h11.627v2.87Zm0-4.4V-802h11.627v2.87Zm8.854,12.795v-3.43l5.254-5.23a1.507,1.507,0,0,1,.555-.372,1.718,1.718,0,0,1,.607-.115,1.656,1.656,0,0,1,.629.122,1.651,1.651,0,0,1,.544.365l1.07,1.095a1.92,1.92,0,0,1,.358.555,1.55,1.55,0,0,1,.129.607,1.7,1.7,0,0,1-.117.63,1.557,1.557,0,0,1-.37.543l-5.23,5.23Zm6.641-5.522.851-.876-1.095-1.095-.851.876Z" transform="translate(-158 802)" fill="#ed1a25"/>
</svg>
