<svg id="comp_logo_text" xmlns="http://www.w3.org/2000/svg" width="80" height="37.282" viewBox="0 0 80 37.282">
  <path id="Path_3" data-name="Path 3" d="M20.718,13.559a5.082,5.082,0,0,0,0,10.165l7.344,0v3.388H19.8a8.473,8.473,0,0,1,0-16.946H33.475c3,0,5.419-1.92,5.411-4.292V0H18.748A18.533,18.533,0,0,0,0,18.487a18.793,18.793,0,0,0,18.748,18.8H38.885V17.85c.008-2.372-2.412-4.291-5.411-4.291Z" fill="#ed1c24"/>
  <path id="Path_4" data-name="Path 4" d="M101.842,23.325l9.192,13.957H98.4l-8.93-13.555H85.138V37.282h-11.3V17.85c-.009-2.371,2.412-4.291,5.411-4.291h17.8a1.7,1.7,0,0,0,0-3.391h-17.8c-3,0-5.42-1.919-5.411-4.291V0H98.11a11.968,11.968,0,0,1,3.732,23.324Z" transform="translate(-31.034 0)" fill="#ed1c24"/>
</svg>
