<svg id="instructions" xmlns="http://www.w3.org/2000/svg" width="18.691" height="23.1" viewBox="0 0 18.691 23.1">
  <path id="instructions-2" data-name="instructions" d="M145.72-881.009h8.816v-2.438H145.72Zm0-4.408h8.816v-2.438H145.72Zm-2.017,9.3a2.818,2.818,0,0,1-2.071-.85,2.818,2.818,0,0,1-.85-2.071V-896.3a2.818,2.818,0,0,1,.85-2.071,2.818,2.818,0,0,1,2.071-.85h8.847l6.924,6.924v13.255a2.818,2.818,0,0,1-.85,2.071,2.818,2.818,0,0,1-2.071.85Zm7.34-14.669v-5.51H143.7v17.259h12.851v-11.749Zm-7.34-5.51v0Z" transform="translate(-140.782 899.218)"/>
</svg>
