<svg id="LinkedIn_icon" xmlns="http://www.w3.org/2000/svg" width="28.054" height="28.054" viewBox="0 0 28.054 28.054">
  <path id="Path_337" data-name="Path 337" d="M3.117,28.054h21.82a3.117,3.117,0,0,0,3.117-3.117V3.117A3.117,3.117,0,0,0,24.937,0H3.117A3.117,3.117,0,0,0,0,3.117v21.82A3.117,3.117,0,0,0,3.117,28.054Z" transform="translate(0 0)" fill="#fff" fill-rule="evenodd"/>
  <path id="Path_338" data-name="Path 338" d="M30.261,30.261H26.1V23.17c0-1.944-.739-3.03-2.277-3.03-1.674,0-2.548,1.131-2.548,3.03v7.091H17.26V16.754h4.012v1.819a4.712,4.712,0,0,1,4.073-2.232c2.865,0,4.916,1.75,4.916,5.368ZM12.474,14.985a2.493,2.493,0,1,1,2.473-2.492A2.483,2.483,0,0,1,12.474,14.985ZM10.4,30.261h4.183V16.754H10.4Z" transform="translate(-6.104 -6.104)" fill="#007ebb" fill-rule="evenodd"/>
</svg>
