<svg id="ticket" xmlns="http://www.w3.org/2000/svg" width="23.099" height="18.691" viewBox="0 0 23.099 18.691">
  <path id="ticket-2" data-name="ticket" d="M72.34-804.487a1.175,1.175,0,0,0,.863-.356,1.175,1.175,0,0,0,.356-.863,1.181,1.181,0,0,0-.353-.863,1.182,1.182,0,0,0-.874-.356,1.2,1.2,0,0,0-.863.353,1.169,1.169,0,0,0-.364.874,1.154,1.154,0,0,0,.364.855A1.2,1.2,0,0,0,72.34-804.487Zm0-4.159a1.162,1.162,0,0,0,.863-.364,1.2,1.2,0,0,0,.356-.871,1.181,1.181,0,0,0-.353-.863,1.181,1.181,0,0,0-.874-.356,1.2,1.2,0,0,0-.863.353,1.169,1.169,0,0,0-.364.874,1.179,1.179,0,0,0,.364.863A1.188,1.188,0,0,0,72.34-808.646Zm0-4.174a1.163,1.163,0,0,0,.863-.364,1.2,1.2,0,0,0,.356-.871,1.155,1.155,0,0,0-.353-.855,1.2,1.2,0,0,0-.874-.348,1.205,1.205,0,0,0-.863.348,1.147,1.147,0,0,0-.364.863,1.179,1.179,0,0,0,.364.863A1.188,1.188,0,0,0,72.34-812.82Zm8.622,12.294H63.7a2.818,2.818,0,0,1-2.071-.85,2.818,2.818,0,0,1-.85-2.071v-4.5a2.322,2.322,0,0,0,1.549-.554,1.725,1.725,0,0,0,.655-1.37,1.712,1.712,0,0,0-.655-1.385,2.364,2.364,0,0,0-1.549-.539v-4.5a2.818,2.818,0,0,1,.85-2.071,2.818,2.818,0,0,1,2.071-.85H80.961a2.818,2.818,0,0,1,2.071.85,2.818,2.818,0,0,1,.85,2.071v4.5a2.372,2.372,0,0,0-1.541.539,1.7,1.7,0,0,0-.663,1.385,1.717,1.717,0,0,0,.663,1.37,2.331,2.331,0,0,0,1.541.554v4.5a2.818,2.818,0,0,1-.85,2.071A2.818,2.818,0,0,1,80.961-800.527Zm0-2.92v-2.545a4.7,4.7,0,0,1-1.6-1.649,4.356,4.356,0,0,1-.6-2.237,4.324,4.324,0,0,1,.6-2.231,4.711,4.711,0,0,1,1.6-1.643V-816.3H63.7v2.545a4.5,4.5,0,0,1,1.62,1.645,4.418,4.418,0,0,1,.585,2.229,4.448,4.448,0,0,1-.585,2.235,4.483,4.483,0,0,1-1.62,1.651v2.545ZM72.332-809.872Z" transform="translate(-60.782 819.218)"/>
</svg>
