<svg id="user" xmlns="http://www.w3.org/2000/svg" width="23.099" height="23.1" viewBox="0 0 23.099 23.1">
  <path id="account" d="M65.632-882.282a11.452,11.452,0,0,1,3.11-1.632,10.928,10.928,0,0,1,3.593-.589,10.721,10.721,0,0,1,3.613.612,11.633,11.633,0,0,1,3.083,1.624,9.062,9.062,0,0,0,1.424-2.492,8.208,8.208,0,0,0,.506-2.91,8.313,8.313,0,0,0-2.529-6.1,8.313,8.313,0,0,0-6.1-2.529,8.313,8.313,0,0,0-6.1,2.529,8.313,8.313,0,0,0-2.529,6.1,8.278,8.278,0,0,0,.5,2.895A8.707,8.707,0,0,0,65.632-882.282Zm6.7-4.145a3.865,3.865,0,0,1-2.835-1.139,3.825,3.825,0,0,1-1.147-2.827,3.851,3.851,0,0,1,1.147-2.835,3.851,3.851,0,0,1,2.835-1.147,3.851,3.851,0,0,1,2.835,1.147,3.851,3.851,0,0,1,1.147,2.835,3.825,3.825,0,0,1-1.147,2.827A3.865,3.865,0,0,1,72.332-886.426Zm0,10.308a11.249,11.249,0,0,1-4.5-.907,11.658,11.658,0,0,1-3.67-2.472,11.654,11.654,0,0,1-2.472-3.672,11.258,11.258,0,0,1-.907-4.5,11.248,11.248,0,0,1,.907-4.5,11.659,11.659,0,0,1,2.472-3.67,11.654,11.654,0,0,1,3.672-2.472,11.258,11.258,0,0,1,4.5-.907,11.248,11.248,0,0,1,4.5.907,11.658,11.658,0,0,1,3.67,2.472,11.654,11.654,0,0,1,2.472,3.672,11.257,11.257,0,0,1,.907,4.5,11.248,11.248,0,0,1-.907,4.5A11.658,11.658,0,0,1,80.5-879.5a11.653,11.653,0,0,1-3.672,2.472A11.259,11.259,0,0,1,72.33-876.119Zm0-2.92a8.36,8.36,0,0,0,2.584-.388,8.783,8.783,0,0,0,2.276-1.125,9.012,9.012,0,0,0-2.268-1.133,8.305,8.305,0,0,0-2.592-.38,8.232,8.232,0,0,0-2.584.38,9.053,9.053,0,0,0-2.26,1.133,8.818,8.818,0,0,0,2.268,1.125A8.287,8.287,0,0,0,72.332-879.039Zm0-9.825a1.481,1.481,0,0,0,1.091-.437,1.481,1.481,0,0,0,.437-1.091,1.507,1.507,0,0,0-.437-1.1,1.468,1.468,0,0,0-1.091-.445,1.468,1.468,0,0,0-1.091.445,1.507,1.507,0,0,0-.437,1.1,1.481,1.481,0,0,0,.437,1.091A1.481,1.481,0,0,0,72.332-888.864ZM72.332-890.392ZM72.347-880.552Z" transform="translate(-60.782 899.218)"/>
</svg>
